<svg width="181" height="260" viewBox="0 0 181 260" fill="none" xmlns="http://www.w3.org/2000/svg">
<path d="M63.098 51.3355L65.528 48.2085L68.091 45.1945C68.929 44.1745 69.834 43.2175 70.734 42.2545L72.081 40.8095C72.526 40.3235 72.98 39.8455 73.457 39.3915L76.275 36.6225C77.219 35.7045 78.222 34.8515 79.194 33.9625L80.663 32.6435L82.185 31.3855C83.207 30.5565 84.207 29.7015 85.247 28.8945C89.409 25.6665 93.789 22.7285 98.322 20.0375C102.897 17.4145 107.648 15.0935 112.55 13.1025C117.481 11.1755 122.57 9.62551 127.77 8.49451C132.979 7.38151 138.321 6.82151 143.682 6.74051C149.047 6.63151 154.447 7.24051 159.718 8.39751C162.373 8.91451 164.948 9.77351 167.526 10.5875L171.311 12.0645C171.948 12.2945 172.557 12.5905 173.165 12.8885L174.994 13.7705" stroke="#9062CD" stroke-width="12" stroke-linecap="round"/>
<path d="M9.57867 146.381L61.8387 76.2784L74.8967 58.7924C79.0847 53.2744 83.8927 48.1894 89.1537 43.6024C99.6837 34.4344 112.008 27.2134 125.168 22.5044" stroke="#FDDA23" stroke-width="25" stroke-linecap="round"/>
<path d="M-95.3333 226.561C-91.6233 225.233 -88.0653 223.536 -84.4493 221.981C-82.6723 221.137 -80.9223 220.234 -79.1563 219.365L-76.5133 218.048L-73.9383 216.605C-72.2263 215.635 -70.4923 214.701 -68.7973 213.703L-63.7923 210.572C-62.1003 209.563 -60.5063 208.408 -58.8893 207.287L-56.4673 205.602C-55.6583 205.041 -54.8433 204.489 -54.0773 203.871L-49.4053 200.265L-48.2363 199.365L-47.1133 198.409L-44.8703 196.492L-42.6263 194.577C-42.2543 194.255 -41.8723 193.945 -41.5083 193.614L-40.4363 192.601L-36.1463 188.551C-30.5933 182.988 -25.2293 177.209 -20.4743 170.941C-18.0443 167.908 -15.6433 164.597 -13.2343 161.362L-6.01231 151.628L8.43369 132.16L37.3257 93.2227" stroke="#FF7E41" stroke-width="15" stroke-linecap="round"/>
</svg>
