<svg width="350" height="180" xmlns="http://www.w3.org/2000/svg" fill="none">

 <g>
  <title>Layer 1</title>
  <path id="svg_1" fill="#59CBE8" d="m166.391,-27.1351c3.136,2.6831 7.843,2.772 11.092,0.017c3.606,-3.0567 4.05,-8.458 0.993,-12.0637c-2.205,-2.6006 -4.309,-5.243 -6.537,-8.0404c-0.886,-1.1129 -1.773,-2.2255 -2.664,-3.3343c-0.943,-1.1974 -1.862,-2.3982 -2.834,-3.6687c-0.545,-0.7121 -1.089,-1.4234 -1.636,-2.1327l-0.79,-1.0275c-1.245,-1.6194 -2.421,-3.1494 -3.552,-4.71l-0.042,-0.0564l-4.425,-5.9993c-0.914,-1.2282 -1.782,-2.4584 -2.701,-3.7612c-0.513,-0.7269 -1.026,-1.4545 -1.544,-2.178c-0.512,-0.7277 -1.029,-1.4523 -1.545,-2.1771c-0.928,-1.3027 -1.805,-2.533 -2.655,-3.781l-6.27,-9.18894l-6.108,-9.29244c-0.847,-1.28003 -1.654,-2.55974 -2.508,-3.91441c-0.481,-0.76429 -0.962,-1.52787 -1.449,-2.28868l-3.925,-6.20693c-0.911,-1.4989 -1.826,-2.9946 -2.742,-4.4907c-1.634,-2.6692 -3.324,-5.4296 -4.942,-8.1421l-4.605,-7.8207c-0.989,-1.6759 -1.923,-3.2588 -2.823,-4.8676c-2.308,-4.1257 -7.524,-5.5986 -11.649,-3.2903c-4.126,2.3079 -5.599,7.5231 -3.29,11.6483c0.996,1.7804 2.024,3.5229 3.018,5.2082l4.623,7.8488c1.692,2.8388 3.408,5.6421 5.068,8.35347c0.919,1.50038 1.838,3.00144 2.752,4.5057l0.081,0.13198l3.99,6.30909c0.49,0.76482 0.95,1.49609 1.411,2.22707c0.866,1.37524 1.762,2.7971 2.701,4.21444l6.213,9.45135l6.31,9.2463c0.947,1.3912 1.918,2.755 2.859,4.0741c0.502,0.7053 1.005,1.4101 1.502,2.1186l0.048,0.066c0.501,0.6986 0.996,1.4014 1.492,2.1044c0.94,1.3323 1.912,2.7096 2.934,4.0834l4.383,5.9424c1.266,1.7442 2.563,3.4323 3.819,5.0652l0.793,1.0326c0.549,0.7119 1.079,1.404 1.608,2.0962c0.975,1.2732 1.982,2.5899 3.009,3.8944l0.055,0.0687c0.884,1.0977 1.761,2.2 2.639,3.3026c2.211,2.7755 4.496,5.6456 6.871,8.4467c0.302,0.3559 0.628,0.6817 0.972,0.9761z" clip-rule="evenodd" fill-rule="evenodd"/>
  <path id="svg_2" fill="#9063CD" d="m216.825,32.557c3.484,2.98 6.996,5.888 10.531,8.719c7.099,5.598 12.592,9.727 17.843,13.414c5.442,3.897 11.503,7.95 18.528,12.39c2.854,1.804 6.63,0.953 8.434,-1.901c1.805,-2.854 0.957,-6.631 -1.901,-8.435c-6.834,-4.32 -12.711,-8.249 -17.966,-12.012l-0.047,-0.033c-5.065,-3.556 -10.396,-7.565 -17.285,-12.996c-11.039,-8.84 -21.912,-18.517 -32.279,-28.732c-9.861,-9.6994 -19.46,-20.1011 -29.349,-31.8043c-8.994,-10.6537 -17.964,-22.1423 -26.658,-34.1438c-1.983,-2.7364 -5.804,-3.3453 -8.539,-1.3643c-2.734,1.9809 -3.345,5.8031 -1.364,8.5378c8.871,12.2452 18.029,23.9739 27.22,34.8604c10.135,11.9944 19.985,22.6662 30.112,32.6272c7.355,7.248 14.965,14.238 22.72,20.873z" clip-rule="evenodd" fill-rule="evenodd"/>
  <path id="svg_3" fill="#FF7F41" d="m218.778,26.76l0.021,0.019l1.52,1.293c2.504,2.134 5.092,4.339 7.76,6.47c2.502,2.072 5.055,4.053 7.525,5.969c0.654,0.508 1.308,1.015 1.962,1.524l0.106,0.082c7.431,5.607 13.721,10.1 19.798,14.139c7.23,4.801 13.977,9.018 20.63,12.895c6.91,4.013 14.083,7.93 21.33,11.649c13.196,6.733 27.622,13.327 44.12,20.165c10.426,4.331 21.104,8.545 31.431,12.621c4.441,1.753 8.887,3.508 13.332,5.278c4.391,1.75 9.369,-0.392 11.118,-4.783c1.75,-4.392 -0.391,-9.37 -4.783,-11.12c-4.462,-1.777 -8.924,-3.538 -13.383,-5.298c-10.257,-4.048 -20.863,-8.234 -31.155,-12.509c-16.083,-6.667 -30.108,-13.075 -42.882,-19.593c-6.967,-3.575 -13.877,-7.348 -20.52,-11.207c-6.351,-3.701 -12.82,-7.745 -19.765,-12.357c-5.767,-3.833 -11.778,-8.126 -18.906,-13.504c-0.646,-0.503 -1.293,-1.006 -1.94,-1.507c-2.492,-1.934 -4.846,-3.76 -7.154,-5.673l-0.125,-0.102c-2.474,-1.974 -4.865,-4.011 -7.397,-6.169l-1.536,-1.307c-3.602,-3.061 -9.004,-2.623 -12.065,0.979c-3.054,3.595 -2.624,8.982 0.958,12.046z" clip-rule="evenodd" fill-rule="evenodd"/>
  <path id="svg_4" fill="#00C389" d="m315.004,97.02c0.594,0.507 1.266,0.942 2.012,1.282c17.081,7.805 34.556,14.786 52.45,21.845l1.976,0.78c16.356,6.453 33.269,13.125 49.405,20.376c4.311,1.938 9.377,0.014 11.315,-4.298c1.938,-4.312 0.012,-9.378 -4.298,-11.315c-16.5,-7.415 -33.601,-14.162 -50.139,-20.687l-1.977,-0.78c-17.672,-6.971 -34.917,-13.859 -51.618,-21.49c-4.299,-1.965 -9.377,-0.073 -11.342,4.227c-1.624,3.554 -0.612,7.64 2.216,10.06z" clip-rule="evenodd" fill-rule="evenodd"/>
  <path id="svg_5" fill="#F5B6CD" d="m205.727,81.409c0.253,0.218 0.515,0.427 0.788,0.629c15.079,11.227 31.596,21.788 49.093,31.388c15.647,8.599 32.765,16.811 52.323,25.1c7.461,3.163 16.072,-0.322 19.235,-7.783c3.162,-7.461 -0.324,-16.074 -7.784,-19.236c-18.633,-7.897 -34.874,-15.683 -49.649,-23.804c-16.324,-8.956 -31.695,-18.78 -45.694,-29.203c-6.5,-4.839 -15.692,-3.493 -20.531,3.007c-4.637,6.228 -3.595,14.929 2.219,19.902z" clip-rule="evenodd" fill-rule="evenodd"/>
  <path id="svg_6" fill="#00C389" d="m171.134,77.715c6.815,5.831 14.009,11.627 21.389,17.232l0.067,0.051c7.253,5.453 14.909,10.847 22.756,16.03l0.115,0.074l5.894,3.823l5.641,3.509c1.405,0.885 2.757,1.686 4.065,2.461c0.637,0.378 1.273,0.755 1.907,1.138l0.132,0.079c0.314,0.185 0.626,0.373 0.939,0.56c0.705,0.422 1.411,0.844 2.123,1.253l2.931,1.678c8.205,4.696 18.664,1.852 23.36,-6.354c4.696,-8.205 1.854,-18.663 -6.353,-23.36l-2.903,-1.661c-0.508,-0.292 -1.038,-0.611 -1.568,-0.929c-0.344,-0.205 -0.688,-0.411 -1.032,-0.615c-0.69,-0.416 -1.384,-0.827 -2.077,-1.238c-1.175,-0.697 -2.286,-1.356 -3.313,-2.003l-5.627,-3.501l-5.419,-3.517c-7.238,-4.783 -14.29,-9.75 -20.963,-14.766c-6.916,-5.255 -13.636,-10.675 -20.012,-16.134c-1.046,-0.904 -2.081,-1.819 -3.116,-2.734c-0.586,-0.517 -1.172,-1.035 -1.759,-1.55l-2.356,-2.085l-2.318,-2.134c-0.586,-0.544 -1.176,-1.085 -1.765,-1.626c-1.028,-0.944 -2,-1.837 -2.932,-2.721l-4.898,-4.712c-0.993,-0.938 -2.022,-1.974 -3.111,-3.071c-0.414,-0.417 -0.827,-0.833 -1.242,-1.248c-0.567,-0.577 -1.14,-1.15 -1.712,-1.722c-0.961,-0.96 -1.869,-1.868 -2.692,-2.739c-0.714,-0.751 -1.399,-1.469 -2.085,-2.188c-2.374,-2.486 -4.616,-4.834 -6.754,-7.222l-0.184,-0.201c-5.842,-6.316 -11.561,-13.08 -16.873,-19.4526c-10.508,-12.8373 -20.873,-26.7806 -30.811,-41.4463c-5.302,-7.8257 -15.948,-9.8719 -23.7738,-4.5689c-7.8268,5.3035 -9.8722,15.9475 -4.5687,23.7742c10.5305,15.5414 21.5375,30.3426 32.7155,43.9936l0.095,0.115c5.591,6.708 11.639,13.861 17.992,20.735c2.47,2.752 4.975,5.376 7.398,7.914c0.666,0.698 1.332,1.396 1.996,2.095c1.128,1.194 2.253,2.318 3.342,3.406c0.522,0.522 1.044,1.044 1.562,1.57l0.103,0.105c0.399,0.397 0.795,0.797 1.192,1.197c1.216,1.226 2.475,2.493 3.849,3.793l4.838,4.655c1.157,1.1 2.297,2.146 3.4,3.159c0.556,0.51 1.111,1.02 1.664,1.532l0.044,0.041l2.717,2.497l2.554,2.259c0.569,0.5 1.136,1.001 1.704,1.503c1.138,1.006 2.278,2.012 3.428,3.006l0.054,0.046l0.251,0.215z" clip-rule="evenodd" fill-rule="evenodd"/>
  <path id="svg_7" fill="#FDDA24" d="m342.195,149.012c1.017,0.87 2.196,1.586 3.513,2.1c2.703,1.053 5.41,2.104 8.121,3.156c15.028,5.834 30.568,11.866 45.653,18.399c19.863,8.601 36.603,17.142 51.179,26.113c5.751,3.54 13.282,1.747 16.822,-4.003c3.54,-5.752 1.749,-13.283 -4.004,-16.823c-15.58,-9.589 -33.335,-18.659 -54.279,-27.727c-15.515,-6.72 -31.278,-12.839 -46.522,-18.757c-2.701,-1.048 -5.399,-2.095 -8.093,-3.145c-6.292,-2.451 -13.381,0.663 -15.832,6.955c-1.938,4.975 -0.397,10.447 3.442,13.732z" clip-rule="evenodd" fill-rule="evenodd"/>
  <path id="svg_8" fill="#FDDA24" d="m171.663,49.78c4.939,4.225 12.377,3.853 16.866,-0.939c4.616,-4.928 4.364,-12.666 -0.565,-17.282c-19.295,-18.075 -37.961,-39.2024 -55.479,-62.7976c-8.089,-10.8976 -16.166,-22.636 -24.006,-34.8883c-7.166,-11.2143 -14.292,-23.17963 -21.7821,-36.57454c-3.2954,-5.89289 -10.7453,-8.00066 -16.6397,-4.70438c-5.8939,3.29554 -8.0007,10.74529 -4.7047,16.63955c7.726,13.81707 15.0938,26.18587 22.5242,37.81337c8.1463,12.7319 16.5473,24.9407 24.9733,36.291c18.388,24.7679 38.035,46.9969 58.396,66.0689c0.137,0.127 0.276,0.252 0.417,0.373z" clip-rule="evenodd" fill-rule="evenodd"/>
 </g>
</svg>